<?xml version="1.0" encoding="UTF-8" standalone="no"?>
<!DOCTYPE svg PUBLIC "-//W3C//DTD SVG 1.1//EN" "http://www.w3.org/Graphics/SVG/1.1/DTD/svg11.dtd">
<svg width="100%" height="100%" viewBox="0 0 40 14" version="1.1" xmlns="http://www.w3.org/2000/svg" xmlns:xlink="http://www.w3.org/1999/xlink" xml:space="preserve" xmlns:serif="http://www.serif.com/" style="fill-rule:evenodd;clip-rule:evenodd;stroke-linejoin:round;stroke-miterlimit:2;">
    <g transform="matrix(1,0,0,1,-160.402,-119.35)">
        <g>
            <g transform="matrix(0.850465,0,0,0.850465,-9.04455,18.7785)">
                <path d="M204.007,119.07L201.527,119.07C200.808,119.07 200.248,119.646 200.248,120.349L200.248,129.628C200.248,130.332 200.808,130.908 201.527,130.908C202.231,130.908 202.806,130.332 202.806,129.628L202.806,126.412L204.007,126.412C206.04,126.412 207.686,124.765 207.686,122.733C207.686,120.717 206.04,119.07 204.007,119.07ZM204.007,123.854L202.806,123.854L202.806,121.628L204.007,121.628C204.632,121.628 205.128,122.125 205.128,122.733C205.128,123.374 204.632,123.854 204.007,123.854Z" style="fill:rgb(42,65,98);fill-rule:nonzero;stroke:rgb(42,65,98);stroke-width:0.79px;"/>
                <path d="M210.294,121.358C210.294,121.966 209.799,122.462 209.207,122.462C208.6,122.462 208.104,121.966 208.104,121.358C208.104,120.766 208.6,120.27 209.207,120.27C209.799,120.27 210.294,120.766 210.294,121.358ZM209.207,130.908C208.504,130.908 207.928,130.332 207.928,129.628L207.928,124.092C207.928,123.388 208.504,122.812 209.207,122.812C209.911,122.812 210.486,123.388 210.486,124.092L210.486,129.628C210.486,130.332 209.911,130.908 209.207,130.908Z" style="fill:rgb(42,65,98);fill-rule:nonzero;stroke:rgb(42,65,98);stroke-width:0.79px;"/>
                <path d="M214.66,131.026C212.406,131.026 210.568,129.186 210.568,126.933C210.568,124.681 212.406,122.841 214.66,122.841C215.571,122.841 216.434,123.129 217.153,123.689C217.713,124.121 217.825,124.921 217.393,125.465C216.962,126.024 216.162,126.136 215.603,125.705C215.331,125.497 215.012,125.385 214.66,125.385C213.813,125.385 213.11,126.088 213.11,126.933C213.11,127.778 213.813,128.482 214.66,128.482C215.012,128.482 215.331,128.37 215.603,128.162C216.162,127.73 216.962,127.842 217.393,128.402C217.809,128.962 217.713,129.762 217.153,130.178C216.434,130.738 215.571,131.026 214.66,131.026Z" style="fill:rgb(42,65,98);fill-rule:nonzero;stroke:rgb(42,65,98);stroke-width:0.79px;"/>
                <path d="M223.91,128.786L222.134,126.913L223.846,124.881C224.31,124.337 224.246,123.521 223.702,123.072C223.158,122.608 222.358,122.672 221.894,123.216L220.454,124.913L220.454,121.584C220.454,120.864 219.895,120.288 219.175,120.288C218.472,120.288 217.896,120.864 217.896,121.584L217.896,129.634C217.896,130.338 218.472,130.915 219.175,130.915C219.895,130.915 220.454,130.338 220.454,129.634L220.454,128.882L222.054,130.546C222.55,131.075 223.366,131.091 223.862,130.594C224.374,130.082 224.406,129.298 223.91,128.786Z" style="fill:rgb(42,65,98);fill-rule:nonzero;stroke:rgb(42,65,98);stroke-width:0.79px;"/>
                <path d="M227.591,127.34L224.536,127.34C223.864,127.34 223.304,126.797 223.304,126.109C223.304,125.438 223.864,124.878 224.536,124.878L227.591,124.878C228.262,124.878 228.822,125.438 228.822,126.109C228.822,126.797 228.262,127.34 227.591,127.34Z" style="fill:rgb(42,65,98);fill-rule:nonzero;stroke:rgb(42,65,98);stroke-width:0.79px;"/>
                <path d="M233.015,131.004C230.84,131.004 229.064,129.228 229.064,127.053L229.064,120.334C229.064,119.646 229.64,119.07 230.344,119.07C231.032,119.07 231.608,119.646 231.608,120.334L231.608,127.053C231.608,127.821 232.232,128.445 233.015,128.445C233.799,128.445 234.422,127.821 234.422,127.053L234.422,120.334C234.422,119.646 234.998,119.07 235.686,119.07C236.39,119.07 236.966,119.646 236.966,120.334L236.966,127.053C236.966,129.228 235.19,131.004 233.015,131.004Z" style="fill:rgb(42,65,98);fill-rule:nonzero;stroke:rgb(42,65,98);stroke-width:0.79px;"/>
                <path d="M245.398,126.877C245.398,124.621 243.56,122.782 241.303,122.782C240.583,122.782 239.894,122.974 239.303,123.294C239.079,123.054 238.775,122.91 238.407,122.91C237.752,122.91 237.208,123.454 237.208,124.109L237.208,132.204C237.208,132.86 237.736,133.388 238.375,133.42L238.487,133.42C239.191,133.42 239.75,132.844 239.75,132.156L239.75,130.668C240.231,130.86 240.759,130.972 241.303,130.972C243.56,130.972 245.398,129.134 245.398,126.877ZM242.856,126.877C242.856,127.742 242.168,128.43 241.303,128.43C240.439,128.43 239.75,127.742 239.75,126.877C239.75,126.013 240.439,125.324 241.303,125.324C242.168,125.324 242.856,126.013 242.856,126.877Z" style="fill:rgb(42,65,98);fill-rule:nonzero;stroke:rgb(42,65,98);stroke-width:0.79px;"/>
            </g>
            <g transform="matrix(0.850465,0,0,0.850465,-9.41313,18.5574)">
                <path d="M204.007,119.07L201.527,119.07C200.808,119.07 200.248,119.646 200.248,120.349L200.248,129.628C200.248,130.332 200.808,130.908 201.527,130.908C202.231,130.908 202.806,130.332 202.806,129.628L202.806,126.412L204.007,126.412C206.04,126.412 207.686,124.765 207.686,122.733C207.686,120.717 206.04,119.07 204.007,119.07ZM204.007,123.854L202.806,123.854L202.806,121.628L204.007,121.628C204.632,121.628 205.128,122.125 205.128,122.733C205.128,123.374 204.632,123.854 204.007,123.854Z" style="fill:rgb(42,65,98);fill-rule:nonzero;stroke:rgb(42,65,98);stroke-width:0.79px;"/>
                <path d="M210.294,121.358C210.294,121.966 209.799,122.462 209.207,122.462C208.6,122.462 208.104,121.966 208.104,121.358C208.104,120.766 208.6,120.27 209.207,120.27C209.799,120.27 210.294,120.766 210.294,121.358ZM209.207,130.908C208.504,130.908 207.928,130.332 207.928,129.628L207.928,124.092C207.928,123.388 208.504,122.812 209.207,122.812C209.911,122.812 210.486,123.388 210.486,124.092L210.486,129.628C210.486,130.332 209.911,130.908 209.207,130.908Z" style="fill:rgb(42,65,98);fill-rule:nonzero;stroke:rgb(42,65,98);stroke-width:0.79px;"/>
                <path d="M214.66,131.026C212.406,131.026 210.568,129.186 210.568,126.933C210.568,124.681 212.406,122.841 214.66,122.841C215.571,122.841 216.434,123.129 217.153,123.689C217.713,124.121 217.825,124.921 217.393,125.465C216.962,126.024 216.162,126.136 215.603,125.705C215.331,125.497 215.012,125.385 214.66,125.385C213.813,125.385 213.11,126.088 213.11,126.933C213.11,127.778 213.813,128.482 214.66,128.482C215.012,128.482 215.331,128.37 215.603,128.162C216.162,127.73 216.962,127.842 217.393,128.402C217.809,128.962 217.713,129.762 217.153,130.178C216.434,130.738 215.571,131.026 214.66,131.026Z" style="fill:rgb(42,65,98);fill-rule:nonzero;stroke:rgb(42,65,98);stroke-width:0.79px;"/>
                <path d="M223.91,128.786L222.134,126.913L223.846,124.881C224.31,124.337 224.246,123.521 223.702,123.072C223.158,122.608 222.358,122.672 221.894,123.216L220.454,124.913L220.454,121.584C220.454,120.864 219.895,120.288 219.175,120.288C218.472,120.288 217.896,120.864 217.896,121.584L217.896,129.634C217.896,130.338 218.472,130.915 219.175,130.915C219.895,130.915 220.454,130.338 220.454,129.634L220.454,128.882L222.054,130.546C222.55,131.075 223.366,131.091 223.862,130.594C224.374,130.082 224.406,129.298 223.91,128.786Z" style="fill:rgb(42,65,98);fill-rule:nonzero;stroke:rgb(42,65,98);stroke-width:0.79px;"/>
                <path d="M227.591,127.34L224.536,127.34C223.864,127.34 223.304,126.797 223.304,126.109C223.304,125.438 223.864,124.878 224.536,124.878L227.591,124.878C228.262,124.878 228.822,125.438 228.822,126.109C228.822,126.797 228.262,127.34 227.591,127.34Z" style="fill:rgb(42,65,98);fill-rule:nonzero;stroke:rgb(42,65,98);stroke-width:0.79px;"/>
                <path d="M233.015,131.004C230.84,131.004 229.064,129.228 229.064,127.053L229.064,120.334C229.064,119.646 229.64,119.07 230.344,119.07C231.032,119.07 231.608,119.646 231.608,120.334L231.608,127.053C231.608,127.821 232.232,128.445 233.015,128.445C233.799,128.445 234.422,127.821 234.422,127.053L234.422,120.334C234.422,119.646 234.998,119.07 235.686,119.07C236.39,119.07 236.966,119.646 236.966,120.334L236.966,127.053C236.966,129.228 235.19,131.004 233.015,131.004Z" style="fill:rgb(42,65,98);fill-rule:nonzero;stroke:rgb(42,65,98);stroke-width:0.79px;"/>
                <path d="M245.398,126.877C245.398,124.621 243.56,122.782 241.303,122.782C240.583,122.782 239.894,122.974 239.303,123.294C239.079,123.054 238.775,122.91 238.407,122.91C237.752,122.91 237.208,123.454 237.208,124.109L237.208,132.204C237.208,132.86 237.736,133.388 238.375,133.42L238.487,133.42C239.191,133.42 239.75,132.844 239.75,132.156L239.75,130.668C240.231,130.86 240.759,130.972 241.303,130.972C243.56,130.972 245.398,129.134 245.398,126.877ZM242.856,126.877C242.856,127.742 242.168,128.43 241.303,128.43C240.439,128.43 239.75,127.742 239.75,126.877C239.75,126.013 240.439,125.324 241.303,125.324C242.168,125.324 242.856,126.013 242.856,126.877Z" style="fill:rgb(42,65,98);fill-rule:nonzero;stroke:rgb(42,65,98);stroke-width:0.79px;"/>
            </g>
            <g transform="matrix(1.11986,0,0,1.11986,-65.5205,-14.0191)">
                <path d="M210.294,121.358C210.294,121.966 209.799,122.462 209.207,122.462C208.6,122.462 208.104,121.966 208.104,121.358C208.104,120.766 208.6,120.27 209.207,120.27C209.799,120.27 210.294,120.766 210.294,121.358Z" style="fill:rgb(42,65,98);fill-rule:nonzero;stroke:rgb(42,65,98);stroke-width:0.6px;"/>
            </g>
            <g transform="matrix(0.850465,0,0,0.850465,-9.5682,18.4186)">
                <path d="M204.007,119.07L201.527,119.07C200.808,119.07 200.248,119.646 200.248,120.349L200.248,129.628C200.248,130.332 200.808,130.908 201.527,130.908C202.231,130.908 202.806,130.332 202.806,129.628L202.806,126.412L204.007,126.412C206.04,126.412 207.686,124.765 207.686,122.733C207.686,120.717 206.04,119.07 204.007,119.07ZM204.007,123.854L202.806,123.854L202.806,121.628L204.007,121.628C204.632,121.628 205.128,122.125 205.128,122.733C205.128,123.374 204.632,123.854 204.007,123.854Z" style="fill:url(#_Linear1);fill-rule:nonzero;stroke:rgb(42,65,98);stroke-width:0.79px;"/>
                <path d="M209.207,130.908C208.504,130.908 207.928,130.332 207.928,129.628L207.928,124.092C207.928,123.388 208.504,122.812 209.207,122.812C209.911,122.812 210.486,123.388 210.486,124.092L210.486,129.628C210.486,130.332 209.911,130.908 209.207,130.908Z" style="fill:url(#_Linear2);fill-rule:nonzero;stroke:rgb(42,65,98);stroke-width:0.79px;"/>
                <g transform="matrix(1.31677,0,0,1.31677,-66.2675,-38.4448)">
                    <path d="M210.294,121.358C210.294,121.966 209.799,122.462 209.207,122.462C208.6,122.462 208.104,121.966 208.104,121.358C208.104,120.766 208.6,120.27 209.207,120.27C209.799,120.27 210.294,120.766 210.294,121.358Z" style="fill:url(#_Linear3);fill-rule:nonzero;stroke:rgb(42,65,98);stroke-width:0.6px;"/>
                </g>
                <path d="M214.66,131.026C212.406,131.026 210.568,129.186 210.568,126.933C210.568,124.681 212.406,122.841 214.66,122.841C215.571,122.841 216.434,123.129 217.153,123.689C217.713,124.121 217.825,124.921 217.393,125.465C216.962,126.024 216.162,126.136 215.603,125.705C215.331,125.497 215.012,125.385 214.66,125.385C213.813,125.385 213.11,126.088 213.11,126.933C213.11,127.778 213.813,128.482 214.66,128.482C215.012,128.482 215.331,128.37 215.603,128.162C216.162,127.73 216.962,127.842 217.393,128.402C217.809,128.962 217.713,129.762 217.153,130.178C216.434,130.738 215.571,131.026 214.66,131.026Z" style="fill:url(#_Linear4);fill-rule:nonzero;stroke:rgb(42,65,98);stroke-width:0.79px;"/>
                <path d="M223.91,128.786L222.134,126.913L223.846,124.881C224.31,124.337 224.246,123.521 223.702,123.072C223.158,122.608 222.358,122.672 221.894,123.216L220.454,124.913L220.454,121.584C220.454,120.864 219.895,120.288 219.175,120.288C218.472,120.288 217.896,120.864 217.896,121.584L217.896,129.634C217.896,130.338 218.472,130.915 219.175,130.915C219.895,130.915 220.454,130.338 220.454,129.634L220.454,128.882L222.054,130.546C222.55,131.075 223.366,131.091 223.862,130.594C224.374,130.082 224.406,129.298 223.91,128.786Z" style="fill:url(#_Linear5);fill-rule:nonzero;stroke:rgb(42,65,98);stroke-width:0.79px;"/>
                <path d="M227.591,127.34L224.536,127.34C223.864,127.34 223.304,126.797 223.304,126.109C223.304,125.438 223.864,124.878 224.536,124.878L227.591,124.878C228.262,124.878 228.822,125.438 228.822,126.109C228.822,126.797 228.262,127.34 227.591,127.34Z" style="fill:url(#_Linear6);fill-rule:nonzero;stroke:rgb(42,65,98);stroke-width:0.79px;"/>
                <path d="M233.015,131.004C230.84,131.004 229.064,129.228 229.064,127.053L229.064,120.334C229.064,119.646 229.64,119.07 230.344,119.07C231.032,119.07 231.608,119.646 231.608,120.334L231.608,127.053C231.608,127.821 232.232,128.445 233.015,128.445C233.799,128.445 234.422,127.821 234.422,127.053L234.422,120.334C234.422,119.646 234.998,119.07 235.686,119.07C236.39,119.07 236.966,119.646 236.966,120.334L236.966,127.053C236.966,129.228 235.19,131.004 233.015,131.004Z" style="fill:url(#_Linear7);fill-rule:nonzero;stroke:rgb(42,65,98);stroke-width:0.79px;"/>
                <path d="M245.398,126.877C245.398,124.621 243.56,122.782 241.303,122.782C240.583,122.782 239.894,122.974 239.303,123.294C239.079,123.054 238.775,122.91 238.407,122.91C237.752,122.91 237.208,123.454 237.208,124.109L237.208,132.204C237.208,132.86 237.736,133.388 238.375,133.42L238.487,133.42C239.191,133.42 239.75,132.844 239.75,132.156L239.75,130.668C240.231,130.86 240.759,130.972 241.303,130.972C243.56,130.972 245.398,129.134 245.398,126.877ZM242.856,126.877C242.856,127.742 242.168,128.43 241.303,128.43C240.439,128.43 239.75,127.742 239.75,126.877C239.75,126.013 240.439,125.324 241.303,125.324C242.168,125.324 242.856,126.013 242.856,126.877Z" style="fill:url(#_Linear8);fill-rule:nonzero;stroke:rgb(42,65,98);stroke-width:0.79px;"/>
            </g>
        </g>
    </g>
    <defs>
        <linearGradient id="_Linear1" x1="0" y1="0" x2="1" y2="0" gradientUnits="userSpaceOnUse" gradientTransform="matrix(9.80697e-16,-16.016,3.15095,1.9294e-16,237.842,134.109)"><stop offset="0" style="stop-color:rgb(255,234,175);stop-opacity:1"/><stop offset="1" style="stop-color:white;stop-opacity:1"/></linearGradient>
        <linearGradient id="_Linear2" x1="0" y1="0" x2="1" y2="0" gradientUnits="userSpaceOnUse" gradientTransform="matrix(9.80697e-16,-16.016,3.15095,1.9294e-16,237.842,134.109)"><stop offset="0" style="stop-color:rgb(255,234,175);stop-opacity:1"/><stop offset="1" style="stop-color:white;stop-opacity:1"/></linearGradient>
        <linearGradient id="_Linear3" x1="0" y1="0" x2="1" y2="0" gradientUnits="userSpaceOnUse" gradientTransform="matrix(9.80697e-16,-16.016,3.15095,1.9294e-16,237.842,134.109)"><stop offset="0" style="stop-color:rgb(255,234,175);stop-opacity:1"/><stop offset="1" style="stop-color:white;stop-opacity:1"/></linearGradient>
        <linearGradient id="_Linear4" x1="0" y1="0" x2="1" y2="0" gradientUnits="userSpaceOnUse" gradientTransform="matrix(9.80697e-16,-16.016,3.15095,1.9294e-16,237.842,134.109)"><stop offset="0" style="stop-color:rgb(255,234,175);stop-opacity:1"/><stop offset="1" style="stop-color:white;stop-opacity:1"/></linearGradient>
        <linearGradient id="_Linear5" x1="0" y1="0" x2="1" y2="0" gradientUnits="userSpaceOnUse" gradientTransform="matrix(9.80697e-16,-16.016,3.15095,1.9294e-16,237.842,134.109)"><stop offset="0" style="stop-color:rgb(255,234,175);stop-opacity:1"/><stop offset="1" style="stop-color:white;stop-opacity:1"/></linearGradient>
        <linearGradient id="_Linear6" x1="0" y1="0" x2="1" y2="0" gradientUnits="userSpaceOnUse" gradientTransform="matrix(9.80697e-16,-16.016,3.15095,1.9294e-16,237.842,134.109)"><stop offset="0" style="stop-color:rgb(255,234,175);stop-opacity:1"/><stop offset="1" style="stop-color:white;stop-opacity:1"/></linearGradient>
        <linearGradient id="_Linear7" x1="0" y1="0" x2="1" y2="0" gradientUnits="userSpaceOnUse" gradientTransform="matrix(9.80697e-16,-16.016,3.15095,1.9294e-16,237.842,134.109)"><stop offset="0" style="stop-color:rgb(255,234,175);stop-opacity:1"/><stop offset="1" style="stop-color:white;stop-opacity:1"/></linearGradient>
        <linearGradient id="_Linear8" x1="0" y1="0" x2="1" y2="0" gradientUnits="userSpaceOnUse" gradientTransform="matrix(9.80697e-16,-16.016,3.15095,1.9294e-16,237.842,134.109)"><stop offset="0" style="stop-color:rgb(255,234,175);stop-opacity:1"/><stop offset="1" style="stop-color:white;stop-opacity:1"/></linearGradient>
    </defs>
</svg>
