<?xml version="1.0" encoding="UTF-8" standalone="no"?>
<!DOCTYPE svg PUBLIC "-//W3C//DTD SVG 1.1//EN" "http://www.w3.org/Graphics/SVG/1.1/DTD/svg11.dtd">
<svg width="100%" height="100%" viewBox="0 0 500 500" version="1.1" xmlns="http://www.w3.org/2000/svg" xmlns:xlink="http://www.w3.org/1999/xlink" xml:space="preserve" xmlns:serif="http://www.serif.com/" style="fill-rule:evenodd;clip-rule:evenodd;stroke-linejoin:round;stroke-miterlimit:2;">
    <rect x="0" y="0" width="500" height="500"/>
    <g transform="matrix(40.1868,0,0,40.1868,-4741.43,-6157.21)">
        <g transform="matrix(12,0,0,12,118.29,162.712)">
            <path d="M0.776,-0.546L0.776,-0.485C0.776,-0.478 0.771,-0.473 0.764,-0.473L0.691,-0.473C0.684,-0.473 0.679,-0.468 0.679,-0.461L0.679,-0.388C0.679,-0.381 0.674,-0.376 0.667,-0.376L0.594,-0.376C0.587,-0.376 0.582,-0.371 0.582,-0.364L0.582,-0.279C0.582,-0.272 0.587,-0.267 0.594,-0.267L0.683,-0.267C0.69,-0.267 0.695,-0.272 0.695,-0.279L0.695,-0.352C0.695,-0.359 0.7,-0.364 0.707,-0.364L0.78,-0.364C0.787,-0.364 0.792,-0.369 0.792,-0.376L0.792,-0.449C0.792,-0.456 0.797,-0.461 0.804,-0.461L0.877,-0.461C0.884,-0.461 0.889,-0.466 0.889,-0.473L0.889,-0.655C0.889,-0.662 0.884,-0.667 0.877,-0.667L0.109,-0.667C0.102,-0.667 0.097,-0.662 0.097,-0.655L0.097,-0.57C0.097,-0.563 0.102,-0.558 0.109,-0.558L0.764,-0.558C0.771,-0.558 0.776,-0.553 0.776,-0.546ZM0.489,-0.473L0.4,-0.473C0.393,-0.473 0.388,-0.468 0.388,-0.461L0.388,-0.097C0.388,-0.09 0.383,-0.085 0.376,-0.085L0.303,-0.085C0.296,-0.085 0.291,-0.08 0.291,-0.073L0.291,-0C0.291,0.007 0.286,0.012 0.279,0.012L0.206,0.012C0.199,0.012 0.194,0.017 0.194,0.024L0.194,0.109C0.194,0.116 0.199,0.121 0.206,0.121L0.295,0.121C0.302,0.121 0.307,0.116 0.307,0.109L0.307,0.036C0.307,0.029 0.312,0.024 0.319,0.024L0.392,0.024C0.399,0.024 0.404,0.019 0.404,0.012L0.404,-0.061C0.404,-0.068 0.409,-0.073 0.416,-0.073L0.489,-0.073C0.496,-0.073 0.501,-0.078 0.501,-0.085L0.501,-0.461C0.501,-0.468 0.496,-0.473 0.489,-0.473Z" style="fill:white;fill-rule:nonzero;"/>
        </g>
    </g>
</svg>
